#!OML:ASF F:\VICON\USERDATA\INSTALL\Justin_Nancy\Justin_Nancy.ASF
:FULLY-SPECIFIED
:DEGREES
112
root -7.90773 16.5584 26.8489 -14.0171 -53.1494 20.0931
lowerback 8.57595 5.17939 -4.33157
upperback 3.86104 6.443 -1.34547
thorax -1.09449 3.15565 0.404426
lowerneck -16.7692 -5.13348 -11.2347
upperneck 16.7221 -5.61848 7.01392
head 8.49467 -2.68407 3.51125
rclavicle -3.91606e-014 -9.54166e-015
rhumerus -50.5054 13.2933 -97.0761
rradius 106.38
rwrist -6.58921
rhand -16.1549 29.2758
rfingers 7.12502
rthumb 10.0508 -0.464218
lclavicle -3.91606e-014 -9.54166e-015
lhumerus -52.2676 -2.57832 96.1263
lradius 108.283
lwrist 30.4381
lhand -17.0099 10.8173
lfingers 7.12502
lthumb 9.22576 40.5955
rfemur -25.3417 10.9113 10.4212
rtibia 97.9568
rfoot -1.53338 -6.83244
rtoes 11.3707
lfemur -14.8296 6.06413 -32.5645
ltibia 41.0887
lfoot -19.3425 8.10147
ltoes -13.3385
113
root -8.20177 16.4685 27.2797 -15.0568 -52.9992 21.2747
lowerback 9.05219 4.87044 -5.12859
upperback 3.82119 5.92159 -1.6493
thorax -1.42013 2.892 0.539929
lowerneck -17.2846 -4.78157 -11.0686
upperneck 16.9419 -5.12603 7.01762
head 8.60638 -2.43356 3.54793
rclavicle 8.11041e-014 -1.43125e-014
rhumerus -51.5815 12.203 -97.2042
rradius 105.99
rwrist -6.55767
rhand -16.1508 28.909
rfingers 7.12502
rthumb 10.0547 -0.830832
lclavicle 8.11041e-014 -1.43125e-014
lhumerus -50.3229 -2.73628 96.3158
lradius 109.252
lwrist 30.4625
lhand -18.4203 9.51873
lfingers 7.12502
lthumb 7.86473 39.3524
rfemur -29.6299 9.21826 9.01367
rtibia 99.1179
rfoot -3.2789 -5.53909
rtoes 8.4265
lfemur -12.4282 5.79745 -33.9434
ltibia 40.4716
lfoot -20.053 9.69662
ltoes -16.0128
114
root -8.48362 16.4001 27.6759 -15.1499 -52.4093 21.3579
lowerback 10.2296 4.41396 -5.82207
upperback 3.47547 5.14712 -1.6125
thorax -2.44842 2.52394 0.941062
lowerneck -17.2466 -4.45638 -11.304
upperneck 16.8258 -4.66175 7.24669
head 8.52592 -2.20705 3.72706
rclavicle -9.28324e-014 2.54444e-014
rhumerus -53.0839 11.2509 -97.2555
rradius 106.01
rwrist -7.1857
rhand -16.1692 29.1121
rfingers 7.12502
rthumb 10.037 -0.628517
lclavicle -9.28324e-014 2.54444e-014
lhumerus -48.8217 -2.70955 96.631
lradius 110.425
lwrist 30.2996
lhand -18.818 8.59709
lfingers 7.12502
lthumb 7.48085 38.4448
rfemur -33.5961 7.15805 8.68915
rtibia 99.3644
rfoot -5.18024 -4.18792
rtoes 4.42888
lfemur -10.2872 5.50265 -34.5479
ltibia 40.2202
lfoot -20.6022 10.3954
ltoes -17.227
115
root -8.75874 16.3699 28.0503 -14.0972 -51.0874 20.3753
lowerback 11.5028 3.71745 -6.12579
upperback 3.14527 4.08578 -1.36269
thorax -3.4641 2.02295 1.42186
lowerneck -16.9107 -4.40575 -12.1257
upperneck 15.9963 -4.51872 7.93752
head 8.21001 -2.11868 4.11125
rclavicle -1.33186e-014 -2.22639e-014
rhumerus -54.3318 10.4321 -96.9295
rradius 106.353
rwrist -8.03944
rhand -16.1541 29.2918
rfingers 7.12502
rthumb 10.0515 -0.448115
lclavicle -1.33186e-014 -2.22639e-014
lhumerus -47.063 -2.44094 96.8238
lradius 111.498
lwrist 29.4348
lhand -16.5585 8.73927
lfingers 7.12502
lthumb 9.6613 38.4977
rfemur -37.2011 4.36452 9.19071
rtibia 98.6512
rfoot -6.48378 -3.21157
rtoes 1.01156
lfemur -8.70885 4.68474 -34.4421
ltibia 40.4936
lfoot -21.7993 9.24552
ltoes -16.5621
116
root -9.03249 16.3434 28.4069 -12.2703 -49.112 19.0059
lowerback 12.4637 2.75894 -6.30109
upperback 2.75573 2.72377 -1.03492
thorax -4.32463 1.38109 2.02343
lowerneck -16.9017 -4.21478 -12.4307
upperneck 15.2737 -4.18126 8.13702
head 7.94214 -1.94746 4.26269
rclavicle 1.35174e-014 -1.27222e-014
rhumerus -55.3237 9.75087 -96.4834
rradius 106.879
rwrist -8.96256
rhand -15.8013 29.6335
rfingers 7.12502
rthumb 10.3918 -0.0896815
lclavicle 1.35174e-014 -1.27222e-014
lhumerus -45.2531 -1.81895 96.7569
lradius 112.492
lwrist 27.4935
lhand -12.3777 8.16355
lfingers 7.12502
lthumb 13.693 37.6931
rfemur -40.9345 1.28013 10.0986
rtibia 97.2294
rfoot -7.62728 -2.02532
rtoes -3.63604
lfemur -7.86117 3.49954 -34.0372
ltibia 41.19
lfoot -22.2403 8.17849
ltoes -18.613
117
root -9.31003 16.3232 28.732 -9.63196 -47.5541 16.9032
lowerback 13.4976 1.86051 -6.17303
upperback 2.04746 1.49467 -0.393213
thorax -5.5535 0.830441 2.80198
lowerneck -17.764 -3.78778 -11.7695
upperneck 15.8329 -3.48246 7.12702
head 8.17102 -1.66638 3.89874
rclavicle -8.24956e-014 7.95139e-015
rhumerus -56.6312 9.41434 -96.1048
rradius 107.629
rwrist -9.97526
rhand -15.6486 30.0502
rfingers 7.12502
rthumb 10.5391 0.334408
lclavicle -8.24956e-014 7.95139e-015
lhumerus -44.0862 -1.44621 97.1285
lradius 113.998
lwrist 28.0054
lhand -11.7928 7.97184
lfingers 7.12502
lthumb 14.2566 37.4625
rfemur -44.9428 -0.772574 12.1375
rtibia 95.0134
rfoot -7.78366 -1.65052
rtoes -6.37951
lfemur -7.56079 2.53174 -32.7333
ltibia 41.9754
lfoot -21.588 7.51281
ltoes -22.4991
118
root -9.60169 16.3217 29.0605 -7.22799 -46.567 15.3113
lowerback 14.1865 1.16171 -6.38362
upperback 1.21052 0.517502 0.287266
thorax -6.74341 0.42635 3.82075
lowerneck -18.4643 -3.33485 -11.3872
upperneck 16.6214 -2.74778 6.34974
head 8.46799 -1.37721 3.67163
rclavicle 3.18055e-015 -2.06736e-014
rhumerus -58.2093 9.46508 -95.7927
rradius 108.494
rwrist -10.7154
rhand -16.1805 30.3069
rfingers 7.12502
rthumb 10.026 0.565719
lclavicle 3.18055e-015 -2.06736e-014
lhumerus -43.4775 -1.33149 97.9269
lradius 115.871
lwrist 30.6198
lhand -13.7693 7.13827
lfingers 7.12502
lthumb 12.3515 36.7534
rfemur -48.8774 -1.92301 13.9823
rtibia 91.9389
rfoot -7.66961 -1.74525
rtoes -6.11839
lfemur -7.54007 1.95161 -31.5665
ltibia 42.5578
lfoot -20.5569 6.1283
ltoes -26.0959
